<svg width="52" height="52" viewBox="0 0 52 52" fill="none" xmlns="http://www.w3.org/2000/svg">
<path d="M43.3334 8.66663H8.66671C6.28337 8.66663 4.35504 10.6166 4.35504 13L4.33337 39C4.33337 41.3833 6.28337 43.3333 8.66671 43.3333H43.3334C45.7167 43.3333 47.6667 41.3833 47.6667 39V13C47.6667 10.6166 45.7167 8.66663 43.3334 8.66663ZM42.4667 17.875L27.1484 27.4516C26.455 27.885 25.545 27.885 24.8517 27.4516L9.53337 17.875C9.31612 17.753 9.12586 17.5882 8.97413 17.3906C8.8224 17.193 8.71234 16.9666 8.65062 16.7253C8.5889 16.4839 8.5768 16.2325 8.61505 15.9863C8.6533 15.7401 8.7411 15.5042 8.87315 15.2929C9.0052 15.0817 9.17874 14.8994 9.38328 14.7571C9.58782 14.6149 9.81909 14.5156 10.0631 14.4653C10.3071 14.415 10.5588 14.4147 10.8029 14.4645C11.0471 14.5143 11.2785 14.6131 11.4834 14.755L26 23.8333L40.5167 14.755C40.7215 14.6131 40.953 14.5143 41.1971 14.4645C41.4413 14.4147 41.6929 14.415 41.937 14.4653C42.181 14.5156 42.4123 14.6149 42.6168 14.7571C42.8213 14.8994 42.9949 15.0817 43.1269 15.2929C43.259 15.5042 43.3468 15.7401 43.385 15.9863C43.4233 16.2325 43.4112 16.4839 43.3495 16.7253C43.2877 16.9666 43.1777 17.193 43.0259 17.3906C42.8742 17.5882 42.684 17.753 42.4667 17.875Z" fill="#009EF2"/>
</svg>
