<svg width="52" height="52" viewBox="0 0 52 52" fill="none" xmlns="http://www.w3.org/2000/svg">
<path d="M26 24.9167C24.5635 24.9167 23.1857 24.346 22.1699 23.3302C21.1541 22.3144 20.5834 20.9366 20.5834 19.5C20.5834 18.0635 21.1541 16.6857 22.1699 15.6699C23.1857 14.6541 24.5635 14.0834 26 14.0834C27.4366 14.0834 28.8144 14.6541 29.8302 15.6699C30.846 16.6857 31.4167 18.0635 31.4167 19.5C31.4167 20.2114 31.2766 20.9157 31.0044 21.5729C30.7322 22.2301 30.3332 22.8272 29.8302 23.3302C29.3272 23.8332 28.7301 24.2322 28.0729 24.5044C27.4157 24.7766 26.7114 24.9167 26 24.9167ZM26 4.33337C21.9776 4.33337 18.1199 5.93129 15.2756 8.77559C12.4313 11.6199 10.8334 15.4776 10.8334 19.5C10.8334 30.875 26 47.6667 26 47.6667C26 47.6667 41.1667 30.875 41.1667 19.5C41.1667 15.4776 39.5688 11.6199 36.7245 8.77559C33.8802 5.93129 30.0225 4.33337 26 4.33337Z" fill="#009EF2"/>
</svg>
