<svg width="52" height="52" viewBox="0 0 52 52" fill="none" xmlns="http://www.w3.org/2000/svg">
<path d="M47.6667 26C47.6667 23.1547 47.1063 20.3373 46.0174 17.7086C44.9286 15.0798 43.3326 12.6913 41.3207 10.6794C39.3087 8.66746 36.9202 7.0715 34.2915 5.98265C31.6628 4.8938 28.8453 4.33337 26 4.33337V8.66671C29.4281 8.66663 32.7792 9.68305 35.6296 11.5874C38.4801 13.4918 40.7018 16.1987 42.0139 19.3657C42.8851 21.469 43.3335 23.7234 43.3334 26H47.6667ZM4.33337 21.6667V10.8334C4.33337 10.2587 4.56165 9.70764 4.96798 9.30131C5.3743 8.89498 5.9254 8.66671 6.50004 8.66671H17.3334C17.908 8.66671 18.4591 8.89498 18.8654 9.30131C19.2718 9.70764 19.5 10.2587 19.5 10.8334V19.5C19.5 20.0747 19.2718 20.6258 18.8654 21.0321C18.4591 21.4384 17.908 21.6667 17.3334 21.6667H13C13 26.2638 14.8262 30.6726 18.0769 33.9232C21.3275 37.1739 25.7363 39 30.3334 39V34.6667C30.3334 34.0921 30.5616 33.541 30.968 33.1346C31.3743 32.7283 31.9254 32.5 32.5 32.5H41.1667C41.7413 32.5 42.2924 32.7283 42.6988 33.1346C43.1051 33.541 43.3334 34.0921 43.3334 34.6667V45.5C43.3334 46.0747 43.1051 46.6258 42.6988 47.0321C42.2924 47.4384 41.7413 47.6667 41.1667 47.6667H30.3334C15.9749 47.6667 4.33337 36.0252 4.33337 21.6667Z" fill="#009EF2"/>
<path d="M38.0098 21.0253C38.6633 22.6025 38.9998 24.2928 39 26H35.1C35.1 23.5865 34.1413 21.2719 32.4347 19.5653C30.7281 17.8587 28.4135 16.9 26 16.9V13C28.5711 13.0001 31.0844 13.7627 33.2221 15.1912C35.3598 16.6196 37.026 18.6499 38.0098 21.0253Z" fill="#009EF2"/>
</svg>
